<svg viewBox="0 0 64 64" xmlns="http://www.w3.org/2000/svg"><path d="M10 29.054l16.729 12.69L31.4 38.2a1 1 0 011.208 0l4.667 3.54L54 29.054V10H10zM32 15a9.01 9.01 0 019 9v2a2.994 2.994 0 01-5.534 1.59A4.99 4.99 0 1137 24v2a1 1 0 002 0v-2a7 7 0 10-7 7h3a1 1 0 010 2h-3a9 9 0 010-18z"/><circle cx="32" cy="24" r="3"/><path d="M4.655 25L8 27.537v-5.074zM4 58.986l21.074-15.987L4 27.014zm52-31.449L59.345 25 56 22.464zm4-.523L38.926 42.999 60 58.986zM32 40.255L5.973 60h52.054zM27.063 8h9.874L32 4.255z"/></svg>